<svg width="54" height="54" viewBox="0 0 54 54" fill="none" xmlns="http://www.w3.org/2000/svg">
<path fill-rule="evenodd" clip-rule="evenodd" d="M17.3596 27.6368L24.6356 34.9128C24.772 35.0359 24.8153 35.2317 24.7434 35.4008C24.6716 35.5696 24.5003 35.6744 24.3172 35.6615H8.82718C8.36657 35.6617 7.92489 35.4791 7.59874 35.1538L0.703518 28.2586C0.0258291 27.5807 0.0258291 26.4817 0.703518 25.8038L25.8748 0.632504C26.5527 -0.0451852 27.6517 -0.0451852 28.3296 0.632504L34.5062 6.80916C35.1839 7.48706 35.1839 8.58599 34.5062 9.2639L17.3596 26.4084C17.1948 26.5701 17.1019 26.7915 17.1019 27.0226C17.1019 27.2536 17.1948 27.475 17.3596 27.6368ZM36.834 26.3976L29.558 19.1216C29.4263 18.9957 29.3881 18.8008 29.4625 18.6345C29.5369 18.4684 29.7078 18.3671 29.8893 18.3815H45.3794C45.8393 18.3815 46.2804 18.564 46.6057 18.8892L53.4901 25.7737C54.1678 26.4516 54.1678 27.5505 53.4901 28.2284L28.3188 53.3998C27.9937 53.7261 27.5521 53.9099 27.0914 53.9099C26.6308 53.9099 26.1891 53.7261 25.8641 53.3998L19.6896 47.2253C19.3632 46.9002 19.1797 46.4585 19.1797 45.9979C19.1797 45.5373 19.3632 45.0956 19.6896 44.7705L36.834 27.6239C36.9984 27.4621 37.0907 27.2412 37.0907 27.0108C37.0907 26.7801 36.9984 26.5594 36.834 26.3976Z" fill="#272B36"/>
</svg>
